<mxfile host="app.diagrams.net" agent="Mozilla/5.0 (Macintosh; Intel Mac OS X 10_15_7) AppleWebKit/537.36 (KHTML, like Gecko) Chrome/132.0.0.0 Safari/537.36" version="26.0.11">
  <diagram name="Page-1" id="1yB2PF6aNoz4inn6R-qa">
    <mxGraphModel dx="714" dy="736" grid="1" gridSize="10" guides="1" tooltips="1" connect="1" arrows="1" fold="1" page="1" pageScale="1" pageWidth="850" pageHeight="1100" math="0" shadow="0">
      <root>
        <mxCell id="0" />
        <mxCell id="1" parent="0" />
        <mxCell id="yTonaGaDZenvglt_fyBp-3" style="edgeStyle=orthogonalEdgeStyle;rounded=0;orthogonalLoop=1;jettySize=auto;html=1;exitX=1;exitY=0.5;exitDx=0;exitDy=0;entryX=0;entryY=0.5;entryDx=0;entryDy=0;" edge="1" parent="1" source="yTonaGaDZenvglt_fyBp-1" target="yTonaGaDZenvglt_fyBp-2">
          <mxGeometry relative="1" as="geometry" />
        </mxCell>
        <mxCell id="yTonaGaDZenvglt_fyBp-1" value="Start" style="ellipse;whiteSpace=wrap;html=1;aspect=fixed;" vertex="1" parent="1">
          <mxGeometry x="100" y="120" width="80" height="80" as="geometry" />
        </mxCell>
        <mxCell id="yTonaGaDZenvglt_fyBp-2" value="have an Account" style="shape=process;whiteSpace=wrap;html=1;backgroundOutline=1;" vertex="1" parent="1">
          <mxGeometry x="210" y="130" width="120" height="60" as="geometry" />
        </mxCell>
        <mxCell id="yTonaGaDZenvglt_fyBp-9" style="edgeStyle=orthogonalEdgeStyle;rounded=0;orthogonalLoop=1;jettySize=auto;html=1;entryX=1;entryY=0.5;entryDx=0;entryDy=0;" edge="1" parent="1" source="yTonaGaDZenvglt_fyBp-4" target="yTonaGaDZenvglt_fyBp-8">
          <mxGeometry relative="1" as="geometry" />
        </mxCell>
        <mxCell id="yTonaGaDZenvglt_fyBp-10" value="NO" style="edgeLabel;html=1;align=center;verticalAlign=middle;resizable=0;points=[];" vertex="1" connectable="0" parent="yTonaGaDZenvglt_fyBp-9">
          <mxGeometry x="-0.0667" y="1" relative="1" as="geometry">
            <mxPoint as="offset" />
          </mxGeometry>
        </mxCell>
        <mxCell id="yTonaGaDZenvglt_fyBp-12" value="YES" style="edgeStyle=orthogonalEdgeStyle;rounded=0;orthogonalLoop=1;jettySize=auto;html=1;entryX=0.5;entryY=0;entryDx=0;entryDy=0;" edge="1" parent="1" source="yTonaGaDZenvglt_fyBp-4" target="yTonaGaDZenvglt_fyBp-11">
          <mxGeometry relative="1" as="geometry" />
        </mxCell>
        <mxCell id="yTonaGaDZenvglt_fyBp-4" value="Have Friends" style="rhombus;whiteSpace=wrap;html=1;" vertex="1" parent="1">
          <mxGeometry x="385" y="120" width="80" height="80" as="geometry" />
        </mxCell>
        <mxCell id="yTonaGaDZenvglt_fyBp-5" style="edgeStyle=orthogonalEdgeStyle;rounded=0;orthogonalLoop=1;jettySize=auto;html=1;exitX=1;exitY=0.5;exitDx=0;exitDy=0;" edge="1" parent="1" source="yTonaGaDZenvglt_fyBp-2">
          <mxGeometry relative="1" as="geometry">
            <mxPoint x="390" y="160" as="targetPoint" />
          </mxGeometry>
        </mxCell>
        <mxCell id="yTonaGaDZenvglt_fyBp-8" value="get friends first" style="ellipse;whiteSpace=wrap;html=1;aspect=fixed;" vertex="1" parent="1">
          <mxGeometry x="310" y="10" width="80" height="80" as="geometry" />
        </mxCell>
        <mxCell id="yTonaGaDZenvglt_fyBp-16" style="edgeStyle=orthogonalEdgeStyle;rounded=0;orthogonalLoop=1;jettySize=auto;html=1;entryX=0;entryY=0.5;entryDx=0;entryDy=0;" edge="1" parent="1" source="yTonaGaDZenvglt_fyBp-11" target="yTonaGaDZenvglt_fyBp-13">
          <mxGeometry relative="1" as="geometry" />
        </mxCell>
        <mxCell id="yTonaGaDZenvglt_fyBp-11" value="Show friends list" style="rounded=1;whiteSpace=wrap;html=1;" vertex="1" parent="1">
          <mxGeometry x="365" y="260" width="120" height="60" as="geometry" />
        </mxCell>
        <mxCell id="yTonaGaDZenvglt_fyBp-15" value="NO" style="edgeStyle=orthogonalEdgeStyle;rounded=0;orthogonalLoop=1;jettySize=auto;html=1;" edge="1" parent="1" source="yTonaGaDZenvglt_fyBp-13" target="yTonaGaDZenvglt_fyBp-14">
          <mxGeometry relative="1" as="geometry" />
        </mxCell>
        <mxCell id="yTonaGaDZenvglt_fyBp-18" value="" style="edgeStyle=orthogonalEdgeStyle;rounded=0;orthogonalLoop=1;jettySize=auto;html=1;" edge="1" parent="1" source="yTonaGaDZenvglt_fyBp-13" target="yTonaGaDZenvglt_fyBp-17">
          <mxGeometry relative="1" as="geometry" />
        </mxCell>
        <mxCell id="yTonaGaDZenvglt_fyBp-13" value="want to Message Frinds?" style="rhombus;whiteSpace=wrap;html=1;" vertex="1" parent="1">
          <mxGeometry x="570" y="240" width="80" height="80" as="geometry" />
        </mxCell>
        <mxCell id="yTonaGaDZenvglt_fyBp-14" value="END" style="ellipse;whiteSpace=wrap;html=1;" vertex="1" parent="1">
          <mxGeometry x="570" y="80" width="80" height="80" as="geometry" />
        </mxCell>
        <mxCell id="yTonaGaDZenvglt_fyBp-20" value="" style="edgeStyle=orthogonalEdgeStyle;rounded=0;orthogonalLoop=1;jettySize=auto;html=1;" edge="1" parent="1" source="yTonaGaDZenvglt_fyBp-17" target="yTonaGaDZenvglt_fyBp-19">
          <mxGeometry relative="1" as="geometry" />
        </mxCell>
        <mxCell id="yTonaGaDZenvglt_fyBp-17" value="Open Messenger" style="rounded=1;whiteSpace=wrap;html=1;" vertex="1" parent="1">
          <mxGeometry x="550" y="410" width="120" height="60" as="geometry" />
        </mxCell>
        <mxCell id="yTonaGaDZenvglt_fyBp-25" value="NO" style="edgeStyle=orthogonalEdgeStyle;rounded=0;orthogonalLoop=1;jettySize=auto;html=1;" edge="1" parent="1" source="yTonaGaDZenvglt_fyBp-19" target="yTonaGaDZenvglt_fyBp-24">
          <mxGeometry relative="1" as="geometry" />
        </mxCell>
        <mxCell id="yTonaGaDZenvglt_fyBp-28" value="YES" style="edgeStyle=orthogonalEdgeStyle;rounded=0;orthogonalLoop=1;jettySize=auto;html=1;" edge="1" parent="1" source="yTonaGaDZenvglt_fyBp-19">
          <mxGeometry relative="1" as="geometry">
            <mxPoint x="710" y="580" as="targetPoint" />
          </mxGeometry>
        </mxCell>
        <mxCell id="yTonaGaDZenvglt_fyBp-19" value="Is message there a message?" style="rhombus;whiteSpace=wrap;html=1;rounded=1;" vertex="1" parent="1">
          <mxGeometry x="570" y="540" width="80" height="80" as="geometry" />
        </mxCell>
        <mxCell id="yTonaGaDZenvglt_fyBp-26" style="edgeStyle=orthogonalEdgeStyle;rounded=0;orthogonalLoop=1;jettySize=auto;html=1;entryX=0.5;entryY=0;entryDx=0;entryDy=0;" edge="1" parent="1" target="yTonaGaDZenvglt_fyBp-19">
          <mxGeometry relative="1" as="geometry">
            <mxPoint x="470" y="550" as="sourcePoint" />
            <mxPoint x="510" y="410" as="targetPoint" />
          </mxGeometry>
        </mxCell>
        <mxCell id="yTonaGaDZenvglt_fyBp-24" value="Type a message" style="whiteSpace=wrap;html=1;rounded=1;" vertex="1" parent="1">
          <mxGeometry x="390" y="550" width="120" height="60" as="geometry" />
        </mxCell>
        <mxCell id="yTonaGaDZenvglt_fyBp-37" value="NO" style="edgeStyle=orthogonalEdgeStyle;rounded=0;orthogonalLoop=1;jettySize=auto;html=1;" edge="1" parent="1" source="yTonaGaDZenvglt_fyBp-29">
          <mxGeometry relative="1" as="geometry">
            <mxPoint x="750" y="460" as="targetPoint" />
          </mxGeometry>
        </mxCell>
        <mxCell id="yTonaGaDZenvglt_fyBp-29" value="Submit?" style="rhombus;whiteSpace=wrap;html=1;" vertex="1" parent="1">
          <mxGeometry x="710" y="540" width="80" height="80" as="geometry" />
        </mxCell>
        <mxCell id="yTonaGaDZenvglt_fyBp-31" value="YES" style="edgeStyle=orthogonalEdgeStyle;rounded=0;orthogonalLoop=1;jettySize=auto;html=1;entryX=0.425;entryY=0.033;entryDx=0;entryDy=0;entryPerimeter=0;" edge="1" parent="1" source="yTonaGaDZenvglt_fyBp-29">
          <mxGeometry relative="1" as="geometry">
            <mxPoint x="751" y="681.98" as="targetPoint" />
          </mxGeometry>
        </mxCell>
        <mxCell id="yTonaGaDZenvglt_fyBp-32" value="Send Message to user" style="ellipse;whiteSpace=wrap;html=1;aspect=fixed;" vertex="1" parent="1">
          <mxGeometry x="710" y="680" width="80" height="80" as="geometry" />
        </mxCell>
        <mxCell id="yTonaGaDZenvglt_fyBp-39" style="edgeStyle=orthogonalEdgeStyle;rounded=0;orthogonalLoop=1;jettySize=auto;html=1;exitX=0;exitY=1;exitDx=0;exitDy=0;entryX=0;entryY=0.5;entryDx=0;entryDy=0;" edge="1" parent="1" source="yTonaGaDZenvglt_fyBp-38" target="yTonaGaDZenvglt_fyBp-29">
          <mxGeometry relative="1" as="geometry" />
        </mxCell>
        <mxCell id="yTonaGaDZenvglt_fyBp-38" value="click Submit" style="rounded=1;whiteSpace=wrap;html=1;" vertex="1" parent="1">
          <mxGeometry x="700" y="400" width="120" height="60" as="geometry" />
        </mxCell>
      </root>
    </mxGraphModel>
  </diagram>
</mxfile>
